<svg xmlns="http://www.w3.org/2000/svg" viewBox="0 0 236.97 73.6"><defs><style>.cls-1{fill:#fff;}.cls-2{fill:#ff364a;}</style></defs><title>181129_Emin_Logo_Reverse</title><g id="Layer_2" data-name="Layer 2"><g id="Layer_1-2" data-name="Layer 1"><path class="cls-1" d="M116.54,64.14H100q-5.39,0-8.47-3t-3.08-8.51V35.87q0-5.46,3.08-8.51t8.47-3h6.56q5.39,0,8.43,3t3,8.51v9.92Q118,47,116.93,47H94.83c-.52,0-.78.23-.78.7v4.76q0,6.79,6.56,6.79h15.93a1,1,0,0,1,1.09,1.09v2.81C117.63,63.8,117.26,64.14,116.54,64.14ZM94.83,42.82H111.7a.69.69,0,0,0,.78-.78V36q0-6.71-6.56-6.71h-5.31q-6.56,0-6.56,6.71v6A.69.69,0,0,0,94.83,42.82Z"/><path class="cls-1" d="M166.18,13.94h6.32A1,1,0,0,1,173.6,15V63a1,1,0,0,1-1.09,1.09h-3.43A1,1,0,0,1,168,63V21.59h-.31l-12.1,30.61a1.5,1.5,0,0,1-1.41,1h-3.75a1.29,1.29,0,0,1-1.33-1L136.74,21.51h-.31V63q0,1.09-1,1.09H132A1,1,0,0,1,130.89,63V15A1,1,0,0,1,132,13.94h6.32a.91.91,0,0,1,.94.62L152,46.88h.39l12.8-32.32A.84.84,0,0,1,166.18,13.94Z"/><path class="cls-1" d="M188,17.76V10.42c0-.73.34-1.09,1-1.09h3.59a1,1,0,0,1,1.09,1.09v7.34a1,1,0,0,1-1.09,1.09H189C188.36,18.86,188,18.49,188,17.76ZM188,63V25.41c0-.73.34-1.09,1-1.09h3.59a1,1,0,0,1,1.09,1.09V63a1,1,0,0,1-1.09,1.09h-3.51A1,1,0,0,1,188,63Z"/><path class="cls-1" d="M212,64.14h-3.51A1,1,0,0,1,207.38,63V25.41a1,1,0,0,1,1.09-1.09H212a1,1,0,0,1,1.09,1.09v3h.31q2-4.14,8-4.14h4.37q5.31,0,8.28,3t3,8.51V63a1,1,0,0,1-1.09,1.09h-3.51A1,1,0,0,1,231.27,63V36.11q0-6.79-6.56-6.79h-4.37a7.29,7.29,0,0,0-5.39,1.87,7.18,7.18,0,0,0-1.87,5.31V63A1,1,0,0,1,212,64.14Z"/><path class="cls-2" d="M62.91,22.71c-.47-2.22-1.41-5.28-4-6.32a5.08,5.08,0,0,0-4.07.12,7.38,7.38,0,0,0-3.74,4.26,21.69,21.69,0,0,0-.86,7,26,26,0,0,1-.45,5.44c-.39,1.72-1.41,3.93-3,4.47A2.9,2.9,0,0,1,44,37a9.84,9.84,0,0,1-2-2.27A16.17,16.17,0,0,0,44.7,31a19.83,19.83,0,0,0,1.92-14.14c-.66-2.39-2.32-4.93-5-4.93h-.05c-3.33,0-4.79,3.86-5.15,5-1.5,4.77-.45,10.26.69,14a27,27,0,0,0,1.06,2.92,7.43,7.43,0,0,1-1.9.77,2.53,2.53,0,0,1-2-.12c-.76-.48-1.13-1.62-1.45-3.2a50,50,0,0,1-.7-9V21.6c0-.94,0-1.88,0-2.81,0-2.62-.06-5.33-.23-8l0-.25c-.17-2.61-.36-5.56-1.63-8A4.42,4.42,0,0,0,24.31.41c-3.9,1.64-4.48,7-4.76,9.58a78.85,78.85,0,0,0-.21,10.5c0,1.06.05,2.13.07,3.19,0,.17,0,.35,0,.54,0,1.64.11,4.11-1.32,4.7a1.39,1.39,0,0,1-2-.53c-1.07-1.8-1.08-4.45-1.09-6.79,0-.48,0-.95,0-1.39s0-1.16,0-1.74a62.85,62.85,0,0,0-.55-8.42c-.36-2.3-1.13-5.53-3.67-7A4.76,4.76,0,0,0,4.37,4.54c-1.91,2.64-2.51,6.27-3,9.19a104.29,104.29,0,0,0-1.16,12C.1,28.37,0,31.08,0,33.79c0,.82,0,1.65,0,2.48a69,69,0,0,0,.39,10,12.62,12.62,0,0,0,3.21,7.39A13.51,13.51,0,0,0,7,56.19a15.09,15.09,0,0,0,0,8.08,10.81,10.81,0,0,0,6.63,6.92c4.69,1.94,10.18,2.13,14.6,2.29,1.83.07,3.72.12,5.63.12A73.07,73.07,0,0,0,43.74,73C51.5,72,56.5,68.89,59,63.65c2.38-4.94,3.23-10.62,3.79-16.07.08-.77.16-1.54.24-2.29l0-.28C63.9,37.59,64.46,30,62.91,22.71Zm-18.8-1.14c-.07,3-1.05,7.38-3.58,10.34a28.77,28.77,0,0,1-1.72-8.75c-.18-3.67.42-7.75,2.61-8.18a1.65,1.65,0,0,1,.32,0,1.22,1.22,0,0,1,.82.31C43.78,16.27,44.16,19.59,44.11,21.57Zm-25.29,26C23.07,46.34,29.3,46.92,32,50a2.79,2.79,0,0,1,.73,2.43,5.87,5.87,0,0,1-3.18,3.62c-4.2,2.19-9.13,1.31-13.83,0l-.16,0c-1.57-.43-3.19-.86-4.75-1.45A13,13,0,0,1,18.82,47.58Zm-9,9.85c1,.36,1.88.65,2.61.88C17.07,59.74,22,61.06,27,60.07c4-.8,7.15-3,8.31-5.79s0-6-3-7.88A18.56,18.56,0,0,0,18,44.67a15.88,15.88,0,0,0-9.74,8.19L8,53.31a11.53,11.53,0,0,1-1.75-1.24c-1.64-1.42-2.58-3.48-2.94-6.5A70.66,70.66,0,0,1,3,36.32c0-.85,0-1.69,0-2.53A121.76,121.76,0,0,1,4.33,14.42l.12-.74C4.86,11.1,5.36,7.89,7,6.05a1.51,1.51,0,0,1,1.41-.58,3.42,3.42,0,0,1,2.23,2c1.07,2.41,1.15,5.27,1.23,8l0,.72c0,.83,0,1.66.06,2.48A60.5,60.5,0,0,0,12.39,26c.21,1.51.65,4.67,3,5.78a4.24,4.24,0,0,0,3.89,0,5.94,5.94,0,0,0,2.93-4.26,40.44,40.44,0,0,0,.2-8.5c-.07-1.57-.15-3.19-.11-4.74,0-.24,0-.5,0-.77.05-3.25.14-8.15,2.68-10,1-.72,1.51-.47,1.67-.39,1,.49,2.17,2.78,2.3,10.9,0,.2,0,.37,0,.5,0,1.46.06,3,.08,4.39,0,2,.05,4.11.13,6.17v.1a32.22,32.22,0,0,0,1.12,8.55c.82,2.54,2.18,3.94,4.06,4.15a8.13,8.13,0,0,0,5.23-1.28,10,10,0,0,0,4.19,3.82,5.77,5.77,0,0,0,7.36-2.49c1.93-3,2-6.55,2.06-10,0-.58,0-1.16,0-1.74a11.88,11.88,0,0,1,1.08-5.39c.66-1.17,2.16-2.11,3.42-1.6,1.85.74,2.28,4.22,2.52,6.08l0,.15a62.48,62.48,0,0,1,.18,11.08,141.77,141.77,0,0,1-2.12,19c-1.37,7.2-4.14,11.24-9,13.08A36.16,36.16,0,0,1,38.1,70.47,99.74,99.74,0,0,1,21.59,70c-4-.49-8-1.3-10.3-4C9.6,64,9.07,60.84,9.83,57.43Z"/></g></g></svg>