<?xml version="1.0" standalone="no"?>
<!DOCTYPE svg PUBLIC "-//W3C//DTD SVG 20010904//EN"
 "http://www.w3.org/TR/2001/REC-SVG-20010904/DTD/svg10.dtd">
<svg version="1.0" xmlns="http://www.w3.org/2000/svg"
 width="700.000000pt" height="700.000000pt" viewBox="0 0 700.000000 700.000000"
 preserveAspectRatio="xMidYMid meet">
<metadata>
Created by potrace 1.11, written by Peter Selinger 2001-2013
</metadata>
<g transform="translate(0.000000,700.000000) scale(0.100000,-0.100000)"
fill="#cc2531" stroke="none">
<path d="M1157 5083 c-1 -1 -54 -4 -117 -6 -180 -8 -364 -71 -525 -181 -55
-38 -204 -178 -250 -236 -59 -74 -123 -189 -172 -311 l-38 -94 0 -620 c0 -341
3 -640 7 -665 16 -110 97 -289 183 -405 96 -129 252 -259 410 -342 114 -59
213 -87 385 -109 56 -7 285 -13 765 -20 438 -7 449 -6 435 12 -19 23 -42 51
-74 89 -34 39 -97 172 -130 270 -14 44 -39 144 -55 223 -16 79 -31 145 -33
148 -10 10 -118 13 -488 14 -375 2 -397 3 -435 22 -153 78 -226 171 -240 307
-5 48 -6 763 -1 816 10 106 34 168 92 228 37 40 122 93 162 102 46 10 346 13
1467 16 l950 3 67 -31 c81 -38 147 -97 193 -173 l35 -58 4 -418 c3 -231 5
-422 5 -426 2 -14 739 -10 747 3 7 12 6 610 -1 740 -11 213 -37 324 -110 475
-67 138 -163 259 -305 385 -33 29 -174 121 -225 147 -23 11 -88 37 -145 57
l-105 37 -1228 1 c-676 1 -1229 1 -1230 0z"/>
<path d="M4575 4904 c-6 -2 15 -31 46 -64 85 -88 184 -219 239 -315 41 -71
121 -254 145 -332 6 -22 11 -23 108 -23 56 -1 257 -3 447 -6 l345 -5 65 -35
c82 -45 139 -105 178 -186 l30 -63 0 -473 0 -472 -35 -58 c-68 -112 -159 -177
-268 -191 -74 -8 -2230 -6 -2359 3 -66 5 -89 11 -134 38 -55 34 -107 89 -135
143 -38 76 -49 214 -51 635 l-1 275 -374 3 -373 2 6 -417 c5 -394 7 -446 21
-533 32 -198 152 -418 320 -585 153 -153 299 -235 514 -290 90 -23 390 -29
1441 -29 1016 0 1203 3 1290 20 234 46 467 182 627 369 126 145 192 289 249
540 11 47 13 1011 3 1093 -31 246 -207 561 -399 717 -72 59 -301 169 -405 194
-82 21 -100 24 -215 40 -63 9 -1304 13 -1325 5z"/>
</g>
</svg>
